<?xml version="1.0" encoding="iso-8859-1"?>
<!-- Generator: Adobe Illustrator 21.0.0, SVG Export Plug-In . SVG Version: 6.00 Build 0)  -->
<svg version="1.1" id="Capa_1" xmlns="http://www.w3.org/2000/svg" xmlns:xlink="http://www.w3.org/1999/xlink" x="0px" y="0px"
	 viewBox="0 0 511.999 511.999" style="enable-background:new 0 0 511.999 511.999;" xml:space="preserve">
<g>
	<g>
		<g>
			<path d="M256.043,153.599h17.067c4.713,0,8.533-3.821,8.533-8.533s-3.821-8.533-8.533-8.533h-17.067
				c-4.713,0-8.533,3.82-8.533,8.533S251.33,153.599,256.043,153.599z"/>
			<path d="M204.843,153.599h17.067c4.713,0,8.533-3.821,8.533-8.533s-3.82-8.533-8.533-8.533h-17.067
				c-4.713,0-8.533,3.82-8.533,8.533S200.13,153.599,204.843,153.599z"/>
			<path d="M76.843,170.665c14.138,0,25.6-11.462,25.6-25.6s-11.462-25.6-25.6-25.6s-25.6,11.461-25.6,25.6
				S62.705,170.665,76.843,170.665z M76.843,136.532c4.713,0,8.533,3.82,8.533,8.533s-3.82,8.533-8.533,8.533
				s-8.533-3.821-8.533-8.533S72.13,136.532,76.843,136.532z"/>
			<path d="M256.043,255.999h17.067c4.713,0,8.533-3.82,8.533-8.533s-3.821-8.533-8.533-8.533h-17.067
				c-4.713,0-8.533,3.82-8.533,8.533S251.33,255.999,256.043,255.999z"/>
			<path d="M204.843,255.999h17.067c4.713,0,8.533-3.82,8.533-8.533s-3.82-8.533-8.533-8.533h-17.067
				c-4.713,0-8.533,3.82-8.533,8.533S200.13,255.999,204.843,255.999z"/>
			<path d="M76.843,273.065c14.138,0,25.6-11.461,25.6-25.6c0-14.138-11.462-25.6-25.6-25.6s-25.6,11.461-25.6,25.6
				C51.243,261.604,62.705,273.065,76.843,273.065z M76.843,238.932c4.713,0,8.533,3.82,8.533,8.533s-3.82,8.533-8.533,8.533
				s-8.533-3.82-8.533-8.533S72.13,238.932,76.843,238.932z"/>
			<path d="M273.11,341.332h-17.067c-4.713,0-8.533,3.82-8.533,8.533s3.82,8.533,8.533,8.533h17.067c4.713,0,8.533-3.82,8.533-8.533
				S277.823,341.332,273.11,341.332z"/>
			<path d="M221.91,341.332h-17.067c-4.713,0-8.533,3.82-8.533,8.533s3.82,8.533,8.533,8.533h17.067c4.713,0,8.533-3.82,8.533-8.533
				S226.623,341.332,221.91,341.332z"/>
			<path d="M76.843,324.265c-14.138,0-25.6,11.462-25.6,25.6s11.461,25.6,25.6,25.6s25.6-11.461,25.6-25.6
				S90.982,324.265,76.843,324.265z M76.843,358.399c-4.713,0-8.533-3.82-8.533-8.533s3.82-8.533,8.533-8.533
				s8.533,3.82,8.533,8.533S81.556,358.399,76.843,358.399z"/>
			<path d="M349.91,477.865h-85.333c0-9.426-7.641-17.067-17.067-17.067h-51.2v-51.2h102.4
				c23.552-0.028,42.638-19.114,42.667-42.667v-34.133c-0.038-13.482-6.469-26.147-17.331-34.133
				c10.863-7.986,17.293-20.651,17.331-34.133v-34.133c-0.038-13.482-6.469-26.147-17.331-34.133
				c10.863-7.986,17.293-20.651,17.331-34.133v-34.133c-0.028-23.552-19.114-42.638-42.667-42.667h-256
				C19.157,85.36,0.071,104.446,0.043,127.999v34.133c0.038,13.482,6.469,26.147,17.331,34.133
				c-10.863,7.986-17.293,20.651-17.331,34.133v34.133c0.038,13.482,6.469,26.147,17.331,34.133
				c-10.863,7.986-17.293,20.651-17.331,34.133v34.133c0.028,23.552,19.114,42.638,42.667,42.667h102.4v51.2h-51.2
				c-9.426,0-17.067,7.641-17.067,17.067H8.577c-4.713,0-8.533,3.82-8.533,8.533s3.82,8.533,8.533,8.533h68.267
				c0,9.426,7.641,17.067,17.067,17.067h153.6c9.426,0,17.067-7.641,17.067-17.067h85.333c4.713,0,8.533-3.82,8.533-8.533
				S354.623,477.865,349.91,477.865z M17.11,162.132v-34.133c0-14.138,11.462-25.6,25.6-25.6h256c14.138,0,25.6,11.461,25.6,25.6
				v34.133c0,14.138-11.461,25.6-25.6,25.6h-256C28.571,187.732,17.11,176.27,17.11,162.132z M17.11,264.532v-34.133
				c0-14.138,11.462-25.6,25.6-25.6h256c14.138,0,25.6,11.462,25.6,25.6v34.133c0,14.138-11.461,25.6-25.6,25.6h-256
				C28.571,290.132,17.11,278.67,17.11,264.532z M42.71,392.532c-14.138,0-25.6-11.461-25.6-25.6v-34.133
				c0-14.138,11.462-25.6,25.6-25.6h256c14.138,0,25.6,11.462,25.6,25.6v34.133c0,14.138-11.461,25.6-25.6,25.6H42.71z
				 M179.243,409.599v51.2h-17.067v-51.2H179.243z M247.51,494.932H93.91v-17.067h153.6V494.932z"/>
			<path d="M432.639,57.128c3.292-3.292,3.338-8.614,0.104-11.962L390.076,2.499c-0.795-0.796-1.741-1.426-2.782-1.852
				c-2.088-0.863-4.432-0.863-6.519,0c-1.041,0.426-1.987,1.055-2.782,1.852l-42.667,42.667c-3.234,3.348-3.188,8.671,0.104,11.962
				c3.292,3.292,8.614,3.338,11.962,0.104l28.117-28.1v133.001c0,4.713,3.82,8.533,8.533,8.533s8.533-3.82,8.533-8.533V29.131
				l28.1,28.1C424.025,60.466,429.347,60.419,432.639,57.128z"/>
			<path d="M509.456,181.803c-3.292-3.292-8.614-3.338-11.962-0.104h-0.017l-28.1,28.1V76.799c0-4.713-3.82-8.533-8.533-8.533
				s-8.533,3.82-8.533,8.533v133.001l-28.1-28.1c-3.348-3.234-8.671-3.188-11.962,0.104c-3.292,3.292-3.338,8.614-0.104,11.962
				l42.667,42.667c1.601,1.605,3.775,2.507,6.042,2.507c2.267,0,4.441-0.902,6.042-2.507l42.667-42.667
				C512.794,190.417,512.748,185.094,509.456,181.803z"/>
		</g>
	</g>
</g>
<g>
</g>
<g>
</g>
<g>
</g>
<g>
</g>
<g>
</g>
<g>
</g>
<g>
</g>
<g>
</g>
<g>
</g>
<g>
</g>
<g>
</g>
<g>
</g>
<g>
</g>
<g>
</g>
<g>
</g>
</svg>
