<?xml version="1.0" encoding="utf-8"?>
<svg id="master-artboard" viewBox="0 0 713.40673828125 833.6768798828125" version="1.1" xmlns="http://www.w3.org/2000/svg" x="0px" y="0px" style="enable-background:new 0 0 336 235.2;" width="713.40673828125px" height="833.6768798828125px"><rect id="ee-background" x="0" y="0" width="713.40673828125" height="833.6768798828125" style="fill: white; fill-opacity: 0; pointer-events: none;"/><g transform="matrix(3.0877814292907715, 0, 0, 3.0877814292907715, 0, 274.81065368652344)"><g transform="matrix(2.611837080448326, 0, 0, 2.611837080448326, 0, -87.45161192434502)">
	<g opacity="0.3">
		
	<path d="M 45.5 52.599998474121094 L 17.200000762939453 24.299999237060547 L 3 38.400001525878906 L 17.200000762939453 52.599998474121094 L 3 66.80000305175781 L 17.200000762939453 81 Z" class="st0" style="fill: rgb(6, 130, 180);"/></g>
	<g>
		<path d="M 42.5 49.599998474121094 L 14.199999809265137 21.299999237060547 L 0 35.400001525878906 L 14.199999809265137 49.599998474121094 L 0 63.79999923706055 L 14.199999809265137 78 Z" class="st1" style="fill: rgb(49, 183, 233);"/>
	</g>
</g><g transform="matrix(2.611837080448326, 0, 0, 2.611837080448326, 8.363276366471321e-15, -87.45161192434502)">
	<g opacity="0.3">
		
	<path d="M 88 52.599998474121094 L 88 52.599998474121094 L 38.400001525878906 3 L 24.200000762939453 17.200000762939453 L 59.70000076293945 52.599998474121094 L 24.299999237060547 88 L 38.400001525878906 102.19999694824219 Z" class="st0" style="fill: rgb(6, 130, 180);"/></g>
	<g>
		<path d="M 85 49.599998474121094 L 85 49.599998474121094 L 35.400001525878906 0 L 21.200000762939453 14.199999809265137 L 56.70000076293945 49.599998474121094 L 21.299999237060547 85 L 35.400001525878906 99.19999694824219 Z" class="st1" style="fill: rgb(49, 183, 233);"/>
	</g>
</g><path d="M 40.299999 103.800003 L 90.099998 54.200001" class="st4" style="fill: none;"/></g></svg>