<?xml version="1.0" encoding="iso-8859-1"?>
<!-- Generator: Adobe Illustrator 19.0.0, SVG Export Plug-In . SVG Version: 6.00 Build 0)  -->
<svg version="1.1" id="Layer_1" xmlns="http://www.w3.org/2000/svg" xmlns:xlink="http://www.w3.org/1999/xlink" x="0px" y="0px"
	 viewBox="0 0 512 512" style="enable-background:new 0 0 512 512;" xml:space="preserve">
<g transform="translate(1 1)">
	<g>
		<path d="M485.4,390.253c-51.201-27.152-90.411-42.312-125.326-48.049l4.153-5.71c1.707-1.707,2.56-4.267,1.707-6.827
			l-7.839-31.358c21.055-29.863,33.439-67.146,33.439-102.616V135.96c0-75.093-61.44-136.533-136.533-136.533
			S118.467,60.867,118.467,135.96v59.733c0,35.469,12.384,72.753,33.439,102.616l-7.839,31.358c0,2.56,0,5.12,1.707,7.68
			l3.599,4.948c-34.776,5.807-73.842,20.95-124.772,47.958C8.387,397.933-1,414.147-1,432.067v69.973
			c0,5.12,3.413,8.533,8.533,8.533h204.8h85.333h204.8c5.12,0,8.533-3.413,8.533-8.533v-69.973
			C511,415,500.76,398.787,485.4,390.253z M255,369.987l2.56,5.76l17.92,41.814h-41.624L255,369.987z M228.236,437.303l0.31-2.676
			h52.907l0.31,2.676l6.315,56.204h-66.157L228.236,437.303z M344.6,315.16l3.413,15.36l-8.717,11.969
			c-0.556,0.455-1.071,1.006-1.523,1.684l-35.503,49.157l-11.254,15.453l-23.005-51.761c28.059-3.422,53.047-17.724,73.08-38.215
			C342.273,317.616,343.445,316.404,344.6,315.16z M135.533,135.96c0-65.707,53.76-119.467,119.467-119.467
			s119.467,53.76,119.467,119.467v59.733c0,36.65-12.385,69.278-31.07,94.268l-1.356,0.452c-0.853,0.853-1.707,1.707-2.56,2.56
			c-23.04,30.72-52.906,46.933-84.479,46.933c0,0-0.001,0-0.001,0c-30.72,0-60.587-17.067-84.48-46.933
			c-0.853-0.853-1.707-1.707-2.56-2.56l-1.356-0.452c-18.685-24.99-31.07-57.618-31.07-94.268V135.96z M241.988,357.023
			l-23.005,51.761l-11.258-15.459l-35.498-49.152c-0.272-0.272-0.572-0.541-0.884-0.806l-9.356-12.847l3.413-15.36
			c1.156,1.245,2.328,2.458,3.511,3.651C188.944,339.301,213.93,353.601,241.988,357.023z M16.067,432.067
			c0-11.093,5.973-21.333,16.213-26.453c54.393-28.896,93.548-43.399,128.428-47.731l51.603,70.955l-7.658,64.67H16.067V432.067z
			 M493.933,493.507H306.19l-7.515-66.881l50.61-69.588c34.888,5.174,74.888,19.674,128.435,47.722
			c10.24,5.973,16.213,16.213,16.213,27.307V493.507z"/>
	</g>
</g>
<g>
</g>
<g>
</g>
<g>
</g>
<g>
</g>
<g>
</g>
<g>
</g>
<g>
</g>
<g>
</g>
<g>
</g>
<g>
</g>
<g>
</g>
<g>
</g>
<g>
</g>
<g>
</g>
<g>
</g>
</svg>
