<svg xmlns="http://www.w3.org/2000/svg" version="1.0" viewBox="0 0 512 512">
	<path d="M24.3 1.4C15.5 4.2 6.7 12.1 2.7 20.8L.5 25.5v376l2.9 5.8c3.6 7 9.9 13 17.4 16.5l5.7 2.7 101.8.3 101.7.3V444h-23.1c-24.9 0-27.8.5-31.8 5.6l-1.8 2.3-64.4.3-64.4.3-5.3 2.9c-5.5 3.1-9.4 7.4-11.8 13.1-1.8 4.4-1.8 14.6 0 18.9 2 4.9 8.1 11.2 13 13.5 4.1 2.1 5.7 2.1 68.3 2.1h64.1l1.7 2.6c.9 1.4 3.5 3.4 5.8 4.5 4 1.8 7.7 1.9 75.7 1.9s71.7-.1 75.7-1.9c2.3-1.1 4.9-3.1 5.8-4.5l1.7-2.6h64.1c62.9 0 64.1 0 68.4-2.1 5.3-2.6 11.9-9.9 13.3-14.8 3.5-12.7-1.2-24.6-12.2-30.7l-5.3-2.9-64.4-.3-64.4-.3-2-2.6c-3.8-4.8-6.7-5.3-31.7-5.3h-23v-16.9l101.8-.3 101.7-.3 5.7-2.7c7.5-3.5 13.8-9.5 17.4-16.5l2.9-5.8v-376l-2.7-5.5c-3.5-7.1-9.7-13.3-16.7-16.8L486.5.5l-229-.2C71 .2 27.7.4 24.3 1.4zm459.4 16.7c1.5.5 4.1 2.2 5.7 3.7 5.1 4.8 5.6 7.4 5.6 27.7V68H17V49.6c0-19.6.5-22.3 4.8-27 5.6-5.9-10.6-5.5 233.9-5.6 156.7 0 226 .3 228 1.1zM495 240.2c0 148.6-.1 155.5-1.9 159.3-1 2.2-2.8 4.8-3.9 5.8-5.2 4.7-3.9 4.6-108.4 4.7H282v-28.5l8.3-2.1c37.4-9.7 68.9-34.9 86.5-69.2 10.6-20.6 15.3-39.7 15.3-62.7 0-22.3-4.3-40.9-14.1-60.7-6.9-14-14.1-23.9-26-35.8-19.1-19.2-41-31.1-68.1-37.2-13.8-3-40.7-3.3-53.9-.4-42.5 9.2-77.2 35.5-95.6 72.5-10.5 21.2-14.5 38.5-14.5 62.1 0 22.5 4.8 41.8 15.3 62.2 17.8 34.7 52.2 61.7 89.1 69.8l5.7 1.3V410h-98.7c-104.6-.1-103.3 0-108.5-4.7-1.1-1-2.9-3.6-3.9-5.8-1.8-3.8-1.9-10.7-1.9-159.3V85h478v155.2zm-248-85.7V179h-19.5c-14.9 0-19.5-.3-19.5-1.3 0-2.4 10.1-22.1 14.4-28.1 2.4-3.4 6.3-7.9 8.6-10 4.9-4.4 12.8-9.6 14.7-9.6 1 0 1.3 5 1.3 24.5zm27.1-20.3c9.1 6.1 17 16.1 24 30.3 3.2 6.5 5.9 12.5 5.9 13.2 0 1-4.2 1.3-19.5 1.3H265v-24.5c0-20.4.2-24.5 1.4-24.5.8 0 4.3 1.9 7.7 4.2zm-65.1 4.3c0 .2-2 3.5-4.4 7.2-5.6 8.7-8 13.6-12.1 24.2l-3.3 8.6-15.1.3c-8.3.1-15.1 0-15.1-.4 0-1.5 11.5-14.6 17.3-19.7 8.3-7.2 14.7-11.7 23.7-16.6 7.2-3.9 9-4.6 9-3.6zm100.3 2.1c14 7.1 28.6 18.7 38.1 30.2 3.1 3.8 5.6 7.2 5.6 7.6 0 .4-6.8.5-15.1.4l-15-.3-3.8-9.6c-3.8-9.6-8.1-17.9-13.3-25.6-4.2-6.3-4-6.5 3.5-2.7zM184 197.7c0 1-.7 5.7-1.5 10.5-.9 4.8-1.9 13.6-2.3 19.5l-.7 10.8-21.2.3c-24.6.3-22.3 1.7-19.8-11.9 1.7-8.9 4.5-18.4 7.7-26.2l2-4.7h17.9c16.4 0 17.9.1 17.9 1.7zm63 19.8V239h-50.3l.6-10.2c.4-5.6 1.6-15.3 2.8-21.5l2.1-11.3H247v21.5zm64.9-10.2c1.2 6.2 2.4 15.9 2.8 21.5l.6 10.2H265v-43h44.8l2.1 11.3zm53.9-6.6c3.2 7.8 6 17.3 7.7 26.2 2.5 13.6 4.8 12.2-19.7 11.9l-21.3-.3-.7-10.8c-.4-5.9-1.4-14.7-2.3-19.5-2.3-13.6-4.2-12.2 16.4-12.2h17.9l2 4.7zm-185.6 66.6c.4 5.9 1.4 14.7 2.3 19.5 2.3 13.6 4.2 12.2-16.4 12.2h-18l-3.1-8c-3.3-8.6-6.5-21.1-7.6-29.8l-.7-5.2 21.4.2 21.4.3.7 10.8zm66.8 10.2V299h-21.9c-13.4 0-22.2-.4-22.6-1-1.3-2.2-4.6-21.9-5.2-31.6l-.6-10.4H247v21.5zm67.7-11.8c-.6 10-3.3 27-4.8 31-.8 2.3-.9 2.3-22.9 2.3h-22v-43h50.3l-.6 9.7zm59.9-4.5c-1.1 8.7-4.3 21.2-7.6 29.8l-3.1 8h-18c-13.7 0-17.9-.3-17.9-1.3 0-.6.9-7.3 2-14.7 1.1-7.4 2-16.2 2-19.6 0-3.3.3-6.4.7-6.7.3-.4 10.1-.7 21.6-.7h21l-.7 5.2zm-181.5 65.3c4.1 10.2 8 17.7 13.2 25.3 1.6 2.4 2.7 4.6 2.4 4.8-1.5 1.5-21-10.7-31.7-19.9-5.9-5-17-17.3-17.8-19.8-.3-.6 5.3-.8 14.7-.7l15.2.3 4 10zm53.9 14c0 13.5-.2 24.5-.5 24.5s-2.7-1.1-5.3-2.4c-10.6-5.5-19.2-15.7-27.8-33-3-6.1-5.4-11.6-5.4-12.3 0-1 4.4-1.3 19.5-1.3H247v24.5zm57-23.2c0 3.4-12.4 25.9-17.8 32.2-5.5 6.6-14.3 13.5-18.9 14.9l-2.3.7V316h19.5c15.6 0 19.5.3 19.5 1.3zm48.8-.3c-.9 2.8-13.9 16.7-20.5 22-11.1 8.9-27.6 19-29 17.6-.3-.2.8-2.4 2.4-4.8 6.3-9.3 10.2-17.1 16.2-33.1l1.1-2.7h15.1c9.3 0 14.9.4 14.7 1zm-88 96.7-.3 29.8h-17l-.3-29.8-.2-29.7h18l-.2 29.7zM324 478v17H188v-34h136v17zm-153.2-.3.3 8.3h-124l-2-2.6c-3.8-4.9-1.9-11.6 3.9-13.7.8-.3 28.5-.5 61.5-.4l60 .2.3 8.2zm295.6-5.8c3.2 3 3.4 7.8.5 11.5l-2 2.6H341v-7.8c0-4.3.3-8.2.7-8.6.4-.3 28-.5 61.4-.4l60.7.3 2.6 2.4z"/>
	<path d="M36.9 36.9c-3.1 3.1-3.6 5.9-1.7 9.4 2 3.9 4 4.6 12 4.7 7.4 0 7.7-.1 10.3-3.2 3.2-3.8 2.9-8.1-1.1-11.6-2.1-1.8-3.7-2.2-9.5-2.2-6.5 0-7.3.2-10 2.9zM81.5 35.2c-5.1 2.9-6.1 9.3-2 13.3 2.1 2.2 3.3 2.5 10 2.5s7.9-.3 10-2.5c4.1-4 3.3-10.5-1.6-13-3.3-1.8-13.6-1.9-16.4-.3zM124.2 35c-2.7 1.1-5.1 6.2-4.4 9.6.8 4.5 4.6 6.4 12.9 6.4 6.5 0 7.7-.3 9.8-2.5 3.5-3.4 3.3-7.8-.4-11.6-2.7-2.6-3.6-2.9-9.3-2.8-3.5 0-7.3.4-8.6.9zM414.5 35.2c-5.2 2.8-6.2 9.2-2 13.3l2.4 2.5h28.8c30.2-.1 30.7-.1 33.1-4.7 1.9-3.5 1.4-6.3-1.7-9.4l-2.9-2.9h-27.9c-18.2.1-28.5.4-29.8 1.2z"/>
</svg>
